<?xml version="1.0" encoding="UTF-8" standalone="no"?>
<!DOCTYPE svg PUBLIC "-//W3C//DTD SVG 1.1//EN"
 "http://www.w3.org/Graphics/SVG/1.1/DTD/svg11.dtd">
<!-- Generated by graphviz version 2.43.0 (0)
 -->
<!-- Title: PIN_FSM::Config Pages: 1 -->
<svg width="122pt" height="359pt"
 viewBox="0.00 0.00 122.40 359.40" xmlns="http://www.w3.org/2000/svg" xmlns:xlink="http://www.w3.org/1999/xlink">
<g id="graph0" class="graph" transform="scale(1 1) rotate(0) translate(7.2 352.2)">
<title>PIN_FSM::Config</title>
<polygon fill="transparent" stroke="transparent" points="-7.2,7.2 -7.2,-352.2 115.2,-352.2 115.2,7.2 -7.2,7.2"/>
<!-- Initial -->
<g id="node1" class="node">
<title>Initial</title>
<ellipse fill="#ffffff" stroke="#6f6f6f" cx="54" cy="-327" rx="18" ry="18"/>
</g>
<!-- intermediate_0 -->
<g id="node4" class="node">
<title>intermediate_0</title>
<polygon fill="none" stroke="#6f6f6f" stroke-width="0" points="101.5,-287 6.5,-287 6.5,-264 101.5,-264 101.5,-287"/>
<text text-anchor="middle" x="54" y="-271.8" font-family="Fira Code" font-size="14.00" fill="#6f6f6f">(⊤, 8, ⋆)</text>
</g>
<!-- Initial&#45;&gt;intermediate_0 -->
<g id="edge1" class="edge">
<title>Initial&#45;&gt;intermediate_0</title>
<path fill="none" stroke="#6f6f6f" stroke-width="2.5" d="M54,-308.96C54,-301.69 54,-293.44 54,-287.07"/>
</g>
<!-- Max_Retries -->
<g id="node2" class="node">
<title>Max_Retries</title>
<path fill="#009641" stroke="#6f6f6f" d="M96,-242C96,-242 12,-242 12,-242 6,-242 0,-236 0,-230 0,-230 0,-218 0,-218 0,-212 6,-206 12,-206 12,-206 96,-206 96,-206 102,-206 108,-212 108,-218 108,-218 108,-230 108,-230 108,-236 102,-242 96,-242"/>
<text text-anchor="middle" x="54" y="-220.3" font-family="Arimo" font-size="14.00" fill="#ffffff">Max_Retries</text>
</g>
<!-- intermediate_1 -->
<g id="node5" class="node">
<title>intermediate_1</title>
<polygon fill="none" stroke="#6f6f6f" stroke-width="0" points="106,-184 2,-184 2,-161 106,-161 106,-184"/>
<text text-anchor="middle" x="54" y="-168.8" font-family="Fira Code" font-size="14.00" fill="#6f6f6f">(⊤, 64, ⋆)</text>
</g>
<!-- Max_Retries&#45;&gt;intermediate_1 -->
<g id="edge3" class="edge">
<title>Max_Retries&#45;&gt;intermediate_1</title>
<path fill="none" stroke="#6f6f6f" stroke-width="2.5" d="M54,-205.96C54,-198.69 54,-190.44 54,-184.07"/>
</g>
<!-- PIN -->
<g id="node3" class="node">
<title>PIN</title>
<path fill="#009641" stroke="#6f6f6f" d="M96,-139C96,-139 12,-139 12,-139 6,-139 0,-133 0,-127 0,-127 0,-115 0,-115 0,-109 6,-103 12,-103 12,-103 96,-103 96,-103 102,-103 108,-109 108,-115 108,-115 108,-127 108,-127 108,-133 102,-139 96,-139"/>
<text text-anchor="middle" x="54" y="-117.3" font-family="Arimo" font-size="14.00" fill="#ffffff">PIN</text>
</g>
<!-- intermediate_2 -->
<g id="node6" class="node">
<title>intermediate_2</title>
<polygon fill="none" stroke="#6f6f6f" stroke-width="0" points="101.5,-81 6.5,-81 6.5,-58 101.5,-58 101.5,-81"/>
<text text-anchor="middle" x="54" y="-65.8" font-family="Fira Code" font-size="14.00" fill="#6f6f6f">(⊤, 0, ⋆)</text>
</g>
<!-- PIN&#45;&gt;intermediate_2 -->
<g id="edge5" class="edge">
<title>PIN&#45;&gt;intermediate_2</title>
<path fill="none" stroke="#6f6f6f" stroke-width="2.5" d="M54,-102.96C54,-95.69 54,-87.44 54,-81.07"/>
</g>
<!-- intermediate_0&#45;&gt;Max_Retries -->
<g id="edge2" class="edge">
<title>intermediate_0&#45;&gt;Max_Retries</title>
<path fill="none" stroke="#6f6f6f" stroke-width="2.5" d="M54,-263.51C54,-260.19 54,-256.37 54,-252.46"/>
<polygon fill="#6f6f6f" stroke="#6f6f6f" stroke-width="2.5" points="57.5,-252.18 54,-242.18 50.5,-252.18 57.5,-252.18"/>
</g>
<!-- intermediate_1&#45;&gt;PIN -->
<g id="edge4" class="edge">
<title>intermediate_1&#45;&gt;PIN</title>
<path fill="none" stroke="#6f6f6f" stroke-width="2.5" d="M54,-160.51C54,-157.19 54,-153.37 54,-149.46"/>
<polygon fill="#6f6f6f" stroke="#6f6f6f" stroke-width="2.5" points="57.5,-149.18 54,-139.18 50.5,-149.18 57.5,-149.18"/>
</g>
<!-- Final -->
<g id="node7" class="node">
<title>Final</title>
<ellipse fill="#6f6f6f" stroke="#6f6f6f" cx="54" cy="-18" rx="18" ry="18"/>
</g>
<!-- intermediate_2&#45;&gt;Final -->
<g id="edge6" class="edge">
<title>intermediate_2&#45;&gt;Final</title>
<path fill="none" stroke="#6f6f6f" stroke-width="2.5" d="M54,-57.51C54,-54.19 54,-50.37 54,-46.46"/>
<polygon fill="#6f6f6f" stroke="#6f6f6f" stroke-width="2.5" points="57.5,-46.18 54,-36.18 50.5,-46.18 57.5,-46.18"/>
</g>
</g>
</svg>
