<?xml version="1.0" encoding="UTF-8" standalone="no"?>
<!DOCTYPE svg PUBLIC "-//W3C//DTD SVG 1.1//EN"
 "http://www.w3.org/Graphics/SVG/1.1/DTD/svg11.dtd">
<!-- Generated by graphviz version 2.43.0 (0)
 -->
<!-- Title: PIN_FSM::Request Pages: 1 -->
<svg width="650pt" height="404pt"
 viewBox="0.00 0.00 650.40 404.40" xmlns="http://www.w3.org/2000/svg" xmlns:xlink="http://www.w3.org/1999/xlink">
<g id="graph0" class="graph" transform="scale(1 1) rotate(0) translate(7.2 397.2)">
<title>PIN_FSM::Request</title>
<polygon fill="transparent" stroke="transparent" points="-7.2,7.2 -7.2,-397.2 643.2,-397.2 643.2,7.2 -7.2,7.2"/>
<!-- Initial -->
<g id="node1" class="node">
<title>Initial</title>
<ellipse fill="#ffffff" stroke="#6f6f6f" cx="302" cy="-372" rx="18" ry="18"/>
</g>
<!-- intermediate_1 -->
<g id="node7" class="node">
<title>intermediate_1</title>
<polygon fill="none" stroke="#6f6f6f" stroke-width="0" points="349.5,-324.5 254.5,-324.5 254.5,-301.5 349.5,-301.5 349.5,-324.5"/>
<text text-anchor="middle" x="302" y="-309.3" font-family="Fira Code" font-size="14.00" fill="#6f6f6f">(⊤, 8, ⋆)</text>
</g>
<!-- Initial&#45;&gt;intermediate_1 -->
<g id="edge3" class="edge">
<title>Initial&#45;&gt;intermediate_1</title>
<path fill="none" stroke="#6f6f6f" stroke-width="2.5" d="M302,-353.9C302,-344.45 302,-333.01 302,-324.81"/>
</g>
<!-- Kind -->
<g id="node2" class="node">
<title>Kind</title>
<path fill="#009641" stroke="#6f6f6f" d="M344,-272C344,-272 260,-272 260,-272 254,-272 248,-266 248,-260 248,-260 248,-248 248,-248 248,-242 254,-236 260,-236 260,-236 344,-236 344,-236 350,-236 356,-242 356,-248 356,-248 356,-260 356,-260 356,-266 350,-272 344,-272"/>
<text text-anchor="middle" x="302" y="-250.3" font-family="Arimo" font-size="14.00" fill="#ffffff">Kind</text>
</g>
<!-- intermediate_2 -->
<g id="node8" class="node">
<title>intermediate_2</title>
<polygon fill="none" stroke="#6f6f6f" stroke-width="0" points="248,-214 0,-214 0,-176 248,-176 248,-214"/>
<text text-anchor="middle" x="124" y="-198.8" font-family="Fira Code" font-size="14.00" fill="#6f6f6f">(Kind = PIN_FSM::Forward,</text>
<text text-anchor="middle" x="124" y="-183.8" font-family="Fira Code" font-size="14.00" fill="#6f6f6f">Message&#39;Last &#45; Kind&#39;Last, ⋆)</text>
</g>
<!-- Kind&#45;&gt;intermediate_2 -->
<g id="edge5" class="edge">
<title>Kind&#45;&gt;intermediate_2</title>
<path fill="none" stroke="#6f6f6f" stroke-width="2.5" d="M248.59,-235.9C227.09,-229.01 202.26,-221.06 180.46,-214.08"/>
</g>
<!-- intermediate_3 -->
<g id="node9" class="node">
<title>intermediate_3</title>
<polygon fill="none" stroke="#6f6f6f" stroke-width="0" points="434.5,-147.5 169.5,-147.5 169.5,-124.5 434.5,-124.5 434.5,-147.5"/>
<text text-anchor="middle" x="302" y="-132.3" font-family="Fira Code" font-size="14.00" fill="#6f6f6f">(Kind = PIN_FSM::Deauth, 0, ⋆)</text>
</g>
<!-- Kind&#45;&gt;intermediate_3 -->
<g id="edge7" class="edge">
<title>Kind&#45;&gt;intermediate_3</title>
<path fill="none" stroke="#6f6f6f" stroke-width="2.5" d="M302,-235.88C302,-211.56 302,-167.71 302,-147.6"/>
</g>
<!-- intermediate_4 -->
<g id="node10" class="node">
<title>intermediate_4</title>
<polygon fill="none" stroke="#6f6f6f" stroke-width="0" points="636,-214 346,-214 346,-176 636,-176 636,-214"/>
<text text-anchor="middle" x="491" y="-198.8" font-family="Fira Code" font-size="14.00" fill="#6f6f6f">(Kind = PIN_FSM::Auth</text>
<text text-anchor="middle" x="491" y="-183.8" font-family="Fira Code" font-size="14.00" fill="#6f6f6f">or Kind = PIN_FSM::Change, 64, ⋆)</text>
</g>
<!-- Kind&#45;&gt;intermediate_4 -->
<g id="edge9" class="edge">
<title>Kind&#45;&gt;intermediate_4</title>
<path fill="none" stroke="#6f6f6f" stroke-width="2.5" d="M356.16,-236.67C379.61,-229.59 407.15,-221.29 431.2,-214.04"/>
</g>
<!-- Data -->
<g id="node3" class="node">
<title>Data</title>
<path fill="#009641" stroke="#6f6f6f" d="M139,-154C139,-154 55,-154 55,-154 49,-154 43,-148 43,-142 43,-142 43,-130 43,-130 43,-124 49,-118 55,-118 55,-118 139,-118 139,-118 145,-118 151,-124 151,-130 151,-130 151,-142 151,-142 151,-148 145,-154 139,-154"/>
<text text-anchor="middle" x="97" y="-132.3" font-family="Arimo" font-size="14.00" fill="#ffffff">Data</text>
</g>
<!-- intermediate_0 -->
<g id="node5" class="node">
<title>intermediate_0</title>
<polygon fill="none" stroke="#6f6f6f" stroke-width="0" points="209.5,-88.5 114.5,-88.5 114.5,-65.5 209.5,-65.5 209.5,-88.5"/>
<text text-anchor="middle" x="162" y="-73.3" font-family="Fira Code" font-size="14.00" fill="#6f6f6f">(⊤, 0, ⋆)</text>
</g>
<!-- Data&#45;&gt;intermediate_0 -->
<g id="edge1" class="edge">
<title>Data&#45;&gt;intermediate_0</title>
<path fill="none" stroke="#6f6f6f" stroke-width="2.5" d="M116.5,-117.9C127.27,-108.45 140.32,-97.01 149.68,-88.81"/>
</g>
<!-- PIN -->
<g id="node4" class="node">
<title>PIN</title>
<path fill="#009641" stroke="#6f6f6f" d="M549,-154C549,-154 465,-154 465,-154 459,-154 453,-148 453,-142 453,-142 453,-130 453,-130 453,-124 459,-118 465,-118 465,-118 549,-118 549,-118 555,-118 561,-124 561,-130 561,-130 561,-142 561,-142 561,-148 555,-154 549,-154"/>
<text text-anchor="middle" x="507" y="-132.3" font-family="Arimo" font-size="14.00" fill="#ffffff">PIN</text>
</g>
<!-- intermediate_5 -->
<g id="node11" class="node">
<title>intermediate_5</title>
<polygon fill="none" stroke="#6f6f6f" stroke-width="0" points="489.5,-88.5 394.5,-88.5 394.5,-65.5 489.5,-65.5 489.5,-88.5"/>
<text text-anchor="middle" x="442" y="-73.3" font-family="Fira Code" font-size="14.00" fill="#6f6f6f">(⊤, 0, ⋆)</text>
</g>
<!-- PIN&#45;&gt;intermediate_5 -->
<g id="edge11" class="edge">
<title>PIN&#45;&gt;intermediate_5</title>
<path fill="none" stroke="#6f6f6f" stroke-width="2.5" d="M487.5,-117.9C476.73,-108.45 463.68,-97.01 454.32,-88.81"/>
</g>
<!-- Final -->
<g id="node6" class="node">
<title>Final</title>
<ellipse fill="#6f6f6f" stroke="#6f6f6f" cx="302" cy="-18" rx="18" ry="18"/>
</g>
<!-- intermediate_0&#45;&gt;Final -->
<g id="edge2" class="edge">
<title>intermediate_0&#45;&gt;Final</title>
<path fill="none" stroke="#6f6f6f" stroke-width="2.5" d="M188,-65.41C213.02,-55.23 250.66,-39.9 275.76,-29.69"/>
<polygon fill="#6f6f6f" stroke="#6f6f6f" stroke-width="2.5" points="277.41,-32.79 285.35,-25.78 274.77,-26.31 277.41,-32.79"/>
</g>
<!-- intermediate_1&#45;&gt;Kind -->
<g id="edge4" class="edge">
<title>intermediate_1&#45;&gt;Kind</title>
<path fill="none" stroke="#6f6f6f" stroke-width="2.5" d="M302,-301.28C302,-295.95 302,-289.23 302,-282.58"/>
<polygon fill="#6f6f6f" stroke="#6f6f6f" stroke-width="2.5" points="305.5,-282.39 302,-272.39 298.5,-282.39 305.5,-282.39"/>
</g>
<!-- intermediate_2&#45;&gt;Data -->
<g id="edge6" class="edge">
<title>intermediate_2&#45;&gt;Data</title>
<path fill="none" stroke="#6f6f6f" stroke-width="2.5" d="M115.46,-175.96C113.56,-171.97 111.52,-167.65 109.5,-163.4"/>
<polygon fill="#6f6f6f" stroke="#6f6f6f" stroke-width="2.5" points="112.65,-161.87 105.21,-154.33 106.33,-164.87 112.65,-161.87"/>
</g>
<!-- intermediate_3&#45;&gt;Final -->
<g id="edge8" class="edge">
<title>intermediate_3&#45;&gt;Final</title>
<path fill="none" stroke="#6f6f6f" stroke-width="2.5" d="M302,-124.29C302,-106.8 302,-71.56 302,-46.67"/>
<polygon fill="#6f6f6f" stroke="#6f6f6f" stroke-width="2.5" points="305.5,-46.4 302,-36.4 298.5,-46.4 305.5,-46.4"/>
</g>
<!-- intermediate_4&#45;&gt;PIN -->
<g id="edge10" class="edge">
<title>intermediate_4&#45;&gt;PIN</title>
<path fill="none" stroke="#6f6f6f" stroke-width="2.5" d="M496.06,-175.96C497.12,-172.18 498.27,-168.12 499.4,-164.09"/>
<polygon fill="#6f6f6f" stroke="#6f6f6f" stroke-width="2.5" points="502.8,-164.91 502.13,-154.33 496.06,-163.02 502.8,-164.91"/>
</g>
<!-- intermediate_5&#45;&gt;Final -->
<g id="edge12" class="edge">
<title>intermediate_5&#45;&gt;Final</title>
<path fill="none" stroke="#6f6f6f" stroke-width="2.5" d="M416,-65.41C390.98,-55.23 353.34,-39.9 328.24,-29.69"/>
<polygon fill="#6f6f6f" stroke="#6f6f6f" stroke-width="2.5" points="329.23,-26.31 318.65,-25.78 326.59,-32.79 329.23,-26.31"/>
</g>
</g>
</svg>
