<?xml version="1.0" encoding="UTF-8" standalone="no"?>
<!DOCTYPE svg PUBLIC "-//W3C//DTD SVG 1.1//EN"
 "http://www.w3.org/Graphics/SVG/1.1/DTD/svg11.dtd">
<!-- Generated by graphviz version 2.43.0 (0)
 -->
<!-- Title: Session Pages: 1 -->
<svg width="1149pt" height="1928pt"
 viewBox="0.00 0.00 1149.40 1928.40" xmlns="http://www.w3.org/2000/svg" xmlns:xlink="http://www.w3.org/1999/xlink">
<g id="graph0" class="graph" transform="scale(1 1) rotate(0) translate(7.2 1921.2)">
<title>Session</title>
<polygon fill="transparent" stroke="transparent" points="-7.2,7.2 -7.2,-1921.2 1142.2,-1921.2 1142.2,7.2 -7.2,7.2"/>
<!-- Initialize -->
<g id="node1" class="node">
<title>Initialize</title>
<path fill="#ffffff" stroke="#6f6f6f" d="M229,-1655C229,-1655 91,-1655 91,-1655 85,-1655 79,-1649 79,-1643 79,-1643 79,-1542 79,-1542 79,-1536 85,-1530 91,-1530 91,-1530 229,-1530 229,-1530 235,-1530 241,-1536 241,-1542 241,-1542 241,-1643 241,-1643 241,-1649 235,-1655 229,-1655"/>
<text text-anchor="middle" x="160" y="-1588.8" font-family="Arimo" font-size="14.00">Initialize</text>
</g>
<!-- Error -->
<g id="node2" class="node">
<title>Error</title>
<path fill="#6f6f6f" stroke="#6f6f6f" d="M240.5,-433C240.5,-433 35.5,-433 35.5,-433 29.5,-433 23.5,-427 23.5,-421 23.5,-421 23.5,-269 23.5,-269 23.5,-263 29.5,-257 35.5,-257 35.5,-257 240.5,-257 240.5,-257 246.5,-257 252.5,-263 252.5,-269 252.5,-269 252.5,-421 252.5,-421 252.5,-427 246.5,-433 240.5,-433"/>
<text text-anchor="middle" x="138" y="-341.3" font-family="Arimo" font-size="14.00" fill="#ffffff">Error</text>
</g>
<!-- Initialize&#45;&gt;Error -->
<g id="edge1" class="edge">
<title>Initialize&#45;&gt;Error</title>
<g id="a_edge1"><a xlink:title="Initialize → Error&#10;&#10;[0] Config&#39;Valid = False">
<path fill="none" stroke="#6f6f6f" stroke-width="2.5" d="M160,-1529.9C160,-1435.98 160,-1251.32 160,-1094.5 160,-1094.5 160,-1094.5 160,-843 160,-703.97 151.3,-543.28 144.84,-443.13"/>
<polygon fill="#6f6f6f" stroke="#6f6f6f" stroke-width="2.5" points="148.33,-442.79 144.19,-433.03 141.34,-443.24 148.33,-442.79"/>
</a>
</g>
</g>
<!-- Setup -->
<g id="node3" class="node">
<title>Setup</title>
<path fill="#009641" stroke="#6f6f6f" d="M338,-1405.5C338,-1405.5 200,-1405.5 200,-1405.5 194,-1405.5 188,-1399.5 188,-1393.5 188,-1393.5 188,-1292.5 188,-1292.5 188,-1286.5 194,-1280.5 200,-1280.5 200,-1280.5 338,-1280.5 338,-1280.5 344,-1280.5 350,-1286.5 350,-1292.5 350,-1292.5 350,-1393.5 350,-1393.5 350,-1399.5 344,-1405.5 338,-1405.5"/>
<text text-anchor="middle" x="269" y="-1339.3" font-family="Arimo" font-size="14.00" fill="#ffffff">Setup</text>
</g>
<!-- Initialize&#45;&gt;Setup -->
<g id="edge2" class="edge">
<title>Initialize&#45;&gt;Setup</title>
<path fill="none" stroke="#6f6f6f" stroke-width="2.5" d="M187.22,-1529.68C202.51,-1494.99 221.64,-1451.53 237.56,-1415.39"/>
<polygon fill="#6f6f6f" stroke="#6f6f6f" stroke-width="2.5" points="240.92,-1416.45 241.75,-1405.89 234.51,-1413.63 240.92,-1416.45"/>
</g>
<!-- Config_Channel -->
<g id="node5" class="node">
<title>Config_Channel</title>
<path fill="#7e8ab8" stroke="#6f6f6f" d="M120,-1394C120,-1394 12,-1394 12,-1394 6,-1394 0,-1388 0,-1382 0,-1382 0,-1304 0,-1304 0,-1298 6,-1292 12,-1292 12,-1292 120,-1292 120,-1292 126,-1292 132,-1298 132,-1304 132,-1304 132,-1382 132,-1382 132,-1388 126,-1394 120,-1394"/>
<text text-anchor="middle" x="66" y="-1339.3" font-family="Arimo" font-size="14.00" fill="#ffffff">Config_Channel</text>
</g>
<!-- Initialize&#45;&gt;Config_Channel -->
<g id="edge4" class="edge">
<title>Initialize&#45;&gt;Config_Channel</title>
<g id="a_edge4"><a xlink:title="Initialize: write Config_Channel">
<path fill="none" stroke="#6f6f6f" stroke-width="2.5" d="M136.52,-1529.68C121.88,-1491.14 103.14,-1441.8 88.66,-1403.67"/>
<polygon fill="#6f6f6f" stroke="#6f6f6f" stroke-width="2.5" points="91.9,-1402.34 85.08,-1394.23 85.36,-1404.82 91.9,-1402.34"/>
</a>
</g>
</g>
<!-- Locked -->
<g id="node6" class="node">
<title>Locked</title>
<path fill="#009641" stroke="#6f6f6f" d="M481.5,-952C481.5,-952 224.5,-952 224.5,-952 218.5,-952 212.5,-946 212.5,-940 212.5,-940 212.5,-748 212.5,-748 212.5,-742 218.5,-736 224.5,-736 224.5,-736 481.5,-736 481.5,-736 487.5,-736 493.5,-742 493.5,-748 493.5,-748 493.5,-940 493.5,-940 493.5,-946 487.5,-952 481.5,-952"/>
<text text-anchor="middle" x="353" y="-840.3" font-family="Arimo" font-size="14.00" fill="#ffffff">Locked</text>
</g>
<!-- Setup&#45;&gt;Locked -->
<g id="edge5" class="edge">
<title>Setup&#45;&gt;Locked</title>
<path fill="none" stroke="#6f6f6f" stroke-width="2.5" d="M260.74,-1280.37C253.03,-1207.14 246.52,-1081.99 275,-979.5 276.66,-973.53 278.65,-967.54 280.9,-961.6"/>
<polygon fill="#6f6f6f" stroke="#6f6f6f" stroke-width="2.5" points="284.15,-962.88 284.63,-952.29 277.66,-960.27 284.15,-962.88"/>
</g>
<!-- PIN -->
<g id="node7" class="node">
<title>PIN</title>
<path fill="#7e8ab8" stroke="#6f6f6f" d="M1123,-191C1123,-191 899,-191 899,-191 893,-191 887,-185 887,-179 887,-179 887,-12 887,-12 887,-6 893,0 899,0 899,0 1123,0 1123,0 1129,0 1135,-6 1135,-12 1135,-12 1135,-179 1135,-179 1135,-185 1129,-191 1123,-191"/>
<text text-anchor="middle" x="1011" y="-91.8" font-family="Arimo" font-size="14.00" fill="#ffffff">PIN</text>
</g>
<!-- Setup&#45;&gt;PIN -->
<g id="edge7" class="edge">
<title>Setup&#45;&gt;PIN</title>
<g id="a_edge7"><a xlink:title="Setup: write PIN">
<path fill="none" stroke="#6f6f6f" stroke-width="2.5" d="M350.16,-1335.25C510.73,-1320.45 861.49,-1280.51 955,-1207.5 1095.26,-1097.98 1125,-1022.95 1125,-845 1125,-845 1125,-845 1125,-593.5 1125,-443.71 1149.61,-400.3 1106,-257 1100.13,-237.7 1091.48,-218.29 1081.77,-199.96"/>
<polygon fill="#6f6f6f" stroke="#6f6f6f" stroke-width="2.5" points="1084.78,-198.16 1076.92,-191.06 1078.63,-201.51 1084.78,-198.16"/>
</a>
</g>
</g>
<!-- Max_Retries -->
<g id="node8" class="node">
<title>Max_Retries</title>
<path fill="#7e8ab8" stroke="#6f6f6f" d="M434,-1156C434,-1156 296,-1156 296,-1156 290,-1156 284,-1150 284,-1144 284,-1144 284,-1043 284,-1043 284,-1037 290,-1031 296,-1031 296,-1031 434,-1031 434,-1031 440,-1031 446,-1037 446,-1043 446,-1043 446,-1144 446,-1144 446,-1150 440,-1156 434,-1156"/>
<text text-anchor="middle" x="365" y="-1089.8" font-family="Arimo" font-size="14.00" fill="#ffffff">Max_Retries</text>
</g>
<!-- Setup&#45;&gt;Max_Retries -->
<g id="edge8" class="edge">
<title>Setup&#45;&gt;Max_Retries</title>
<g id="a_edge8"><a xlink:title="Setup: write Max_Retries">
<path fill="none" stroke="#6f6f6f" stroke-width="2.5" d="M292.98,-1280.18C306.44,-1245.49 323.29,-1202.03 337.31,-1165.89"/>
<polygon fill="#6f6f6f" stroke="#6f6f6f" stroke-width="2.5" points="340.64,-1166.97 341,-1156.39 334.12,-1164.44 340.64,-1166.97"/>
</a>
</g>
</g>
<!-- Config -->
<g id="node4" class="node">
<title>Config</title>
<path fill="#7e8ab8" stroke="#6f6f6f" d="M295.5,-1914C295.5,-1914 132.5,-1914 132.5,-1914 126.5,-1914 120.5,-1908 120.5,-1902 120.5,-1902 120.5,-1782 120.5,-1782 120.5,-1776 126.5,-1770 132.5,-1770 132.5,-1770 295.5,-1770 295.5,-1770 301.5,-1770 307.5,-1776 307.5,-1782 307.5,-1782 307.5,-1902 307.5,-1902 307.5,-1908 301.5,-1914 295.5,-1914"/>
<text text-anchor="middle" x="214" y="-1838.3" font-family="Arimo" font-size="14.00" fill="#ffffff">Config</text>
</g>
<!-- Config&#45;&gt;Initialize -->
<g id="edge3" class="edge">
<title>Config&#45;&gt;Initialize</title>
<g id="a_edge3"><a xlink:title="Initialize: read Config">
<path fill="none" stroke="#6f6f6f" stroke-width="2.5" d="M198.45,-1769.74C191.28,-1736.87 182.79,-1697.93 175.61,-1665.03"/>
<polygon fill="#6f6f6f" stroke="#6f6f6f" stroke-width="2.5" points="178.97,-1664.05 173.42,-1655.02 172.14,-1665.54 178.97,-1664.05"/>
</a>
</g>
</g>
<!-- Config&#45;&gt;Setup -->
<g id="edge6" class="edge">
<title>Config&#45;&gt;Setup</title>
<g id="a_edge6"><a xlink:title="Setup: read Config">
<path fill="none" stroke="#6f6f6f" stroke-width="2.5" d="M230.03,-1769.81C237.22,-1735.31 245.16,-1693.18 250,-1655 260.34,-1573.41 265.1,-1479.04 267.26,-1415.85"/>
<polygon fill="#6f6f6f" stroke="#6f6f6f" stroke-width="2.5" points="270.77,-1415.7 267.6,-1405.59 263.77,-1415.47 270.77,-1415.7"/>
</a>
</g>
</g>
<!-- Locked&#45;&gt;Error -->
<g id="edge9" class="edge">
<title>Locked&#45;&gt;Error</title>
<g id="a_edge9"><a xlink:title="Locked → Error&#10;&#10;[0] Request&#39;Valid = False">
<path fill="none" stroke="#6f6f6f" stroke-width="2.5" d="M269.71,-735.8C265.54,-728.53 261.6,-721.23 258,-714 214.05,-625.87 178.4,-519.07 157.45,-443.28"/>
<polygon fill="#6f6f6f" stroke="#6f6f6f" stroke-width="2.5" points="160.73,-441.99 154.72,-433.26 153.97,-443.83 160.73,-441.99"/>
</a>
</g>
</g>
<!-- Locked&#45;&gt;Error -->
<g id="edge13" class="edge">
<title>Locked&#45;&gt;Error</title>
<path fill="none" stroke="#6f6f6f" stroke-width="2.5" d="M287.68,-735.8C283.54,-728.53 279.6,-721.23 276,-714 231.96,-625.69 196.25,-518.63 172,-442.81"/>
<polygon fill="#6f6f6f" stroke="#6f6f6f" stroke-width="2.5" points="175.33,-441.72 168.95,-433.26 168.66,-443.85 175.33,-441.72"/>
</g>
<!-- Locked&#45;&gt;Locked -->
<g id="edge12" class="edge">
<title>Locked&#45;&gt;Locked</title>
<g id="a_edge12"><a xlink:title="Locked → Locked&#10;&#10;[3] (Request.Kind = Auth&#10; and Request.PIN /= PIN)&#10;or Request.Kind = Deauth">
<path fill="none" stroke="#6f6f6f" stroke-width="2.5" d="M493.66,-879.24C504.69,-871.49 511.5,-859.74 511.5,-844 511.5,-832.44 507.83,-823.03 501.51,-815.78"/>
<polygon fill="#6f6f6f" stroke="#6f6f6f" stroke-width="2.5" points="503.44,-812.82 493.66,-808.76 498.78,-818.04 503.44,-812.82"/>
</a>
</g>
</g>
<!-- Disabled -->
<g id="node9" class="node">
<title>Disabled</title>
<path fill="#009641" stroke="#6f6f6f" d="M556.5,-666.5C556.5,-666.5 393.5,-666.5 393.5,-666.5 387.5,-666.5 381.5,-660.5 381.5,-654.5 381.5,-654.5 381.5,-534.5 381.5,-534.5 381.5,-528.5 387.5,-522.5 393.5,-522.5 393.5,-522.5 556.5,-522.5 556.5,-522.5 562.5,-522.5 568.5,-528.5 568.5,-534.5 568.5,-534.5 568.5,-654.5 568.5,-654.5 568.5,-660.5 562.5,-666.5 556.5,-666.5"/>
<text text-anchor="middle" x="475" y="-590.8" font-family="Arimo" font-size="14.00" fill="#ffffff">Disabled</text>
</g>
<!-- Locked&#45;&gt;Disabled -->
<g id="edge10" class="edge">
<title>Locked&#45;&gt;Disabled</title>
<g id="a_edge10"><a xlink:title="Locked → Disabled&#10;&#10;[1] Retries &gt; Max_Retries">
<path fill="none" stroke="#6f6f6f" stroke-width="2.5" d="M405.8,-735.88C415.75,-715.69 426,-694.9 435.46,-675.72"/>
<polygon fill="#6f6f6f" stroke="#6f6f6f" stroke-width="2.5" points="438.61,-677.24 439.89,-666.73 432.33,-674.15 438.61,-677.24"/>
</a>
</g>
</g>
<!-- Authenticated -->
<g id="node10" class="node">
<title>Authenticated</title>
<path fill="#009641" stroke="#6f6f6f" d="M941,-714C941,-714 655,-714 655,-714 649,-714 643,-708 643,-702 643,-702 643,-487 643,-487 643,-481 649,-475 655,-475 655,-475 941,-475 941,-475 947,-475 953,-481 953,-487 953,-487 953,-702 953,-702 953,-708 947,-714 941,-714"/>
<text text-anchor="middle" x="798" y="-590.8" font-family="Arimo" font-size="14.00" fill="#ffffff">Authenticated</text>
</g>
<!-- Locked&#45;&gt;Authenticated -->
<g id="edge11" class="edge">
<title>Locked&#45;&gt;Authenticated</title>
<g id="a_edge11"><a xlink:title="Locked → Authenticated&#10;&#10;[2] Request.Kind = Auth&#10;and Request.PIN = PIN">
<path fill="none" stroke="#6f6f6f" stroke-width="2.5" d="M493.6,-779.02C535.02,-759.57 579.94,-737.17 620,-714 624.75,-711.25 629.54,-708.41 634.34,-705.49"/>
<polygon fill="#6f6f6f" stroke="#6f6f6f" stroke-width="2.5" points="636.31,-708.39 643,-700.17 632.65,-702.43 636.31,-708.39"/>
</a>
</g>
</g>
<!-- Retries -->
<g id="node12" class="node">
<title>Retries</title>
<path fill="#7e8ab8" stroke="#6f6f6f" d="M507,-425.5C507,-425.5 321,-425.5 321,-425.5 315,-425.5 309,-419.5 309,-413.5 309,-413.5 309,-276.5 309,-276.5 309,-270.5 315,-264.5 321,-264.5 321,-264.5 507,-264.5 507,-264.5 513,-264.5 519,-270.5 519,-276.5 519,-276.5 519,-413.5 519,-413.5 519,-419.5 513,-425.5 507,-425.5"/>
<text text-anchor="middle" x="414" y="-341.3" font-family="Arimo" font-size="14.00" fill="#ffffff">Retries</text>
</g>
<!-- Locked&#45;&gt;Retries -->
<g id="edge19" class="edge">
<title>Locked&#45;&gt;Retries</title>
<g id="a_edge19"><a xlink:title="Locked: write Retries">
<path fill="none" stroke="#6f6f6f" stroke-width="2.5" d="M343.55,-735.85C342.65,-661.96 346.92,-561.81 363,-475 365.39,-462.08 368.74,-448.67 372.6,-435.59"/>
<polygon fill="#6f6f6f" stroke="#6f6f6f" stroke-width="2.5" points="376.06,-436.25 375.64,-425.67 369.36,-434.2 376.06,-436.25"/>
</a>
</g>
</g>
<!-- User_Channel -->
<g id="node13" class="node">
<title>User_Channel</title>
<path fill="#7e8ab8" stroke="#6f6f6f" d="M687,-407.5C687,-407.5 549,-407.5 549,-407.5 543,-407.5 537,-401.5 537,-395.5 537,-395.5 537,-294.5 537,-294.5 537,-288.5 543,-282.5 549,-282.5 549,-282.5 687,-282.5 687,-282.5 693,-282.5 699,-288.5 699,-294.5 699,-294.5 699,-395.5 699,-395.5 699,-401.5 693,-407.5 687,-407.5"/>
<text text-anchor="middle" x="618" y="-341.3" font-family="Arimo" font-size="14.00" fill="#ffffff">User_Channel</text>
</g>
<!-- Locked&#45;&gt;User_Channel -->
<g id="edge18" class="edge">
<title>Locked&#45;&gt;User_Channel</title>
<g id="a_edge18"><a xlink:title="Locked: write User_Channel">
<path fill="none" stroke="#6f6f6f" stroke-width="2.5" d="M493.57,-797.83C532.76,-778.3 571.11,-751.14 595,-714 625.42,-666.72 624.92,-511.05 621.61,-418"/>
<polygon fill="#6f6f6f" stroke="#6f6f6f" stroke-width="2.5" points="625.1,-417.68 621.23,-407.81 618.11,-417.94 625.1,-417.68"/>
</a>
</g>
</g>
<!-- PIN&#45;&gt;Locked -->
<g id="edge17" class="edge">
<title>PIN&#45;&gt;Locked</title>
<g id="a_edge17"><a xlink:title="Locked: read PIN">
<path fill="none" stroke="#6f6f6f" stroke-width="2.5" d="M886.95,-185.65C882.65,-187.58 878.33,-189.38 874,-191 753.8,-236.13 385.45,-161.17 300,-257 240.26,-324.01 287.53,-575.24 323.04,-726.14"/>
<polygon fill="#6f6f6f" stroke="#6f6f6f" stroke-width="2.5" points="319.65,-727.01 325.36,-735.93 326.46,-725.4 319.65,-727.01"/>
</a>
</g>
</g>
<!-- PIN&#45;&gt;Authenticated -->
<g id="edge28" class="edge">
<title>PIN&#45;&gt;Authenticated</title>
<g id="a_edge28"><a xlink:title="Authenticated: read PIN">
<path fill="none" stroke="#6f6f6f" stroke-width="2.5" d="M955.33,-191.28C944.47,-212.42 934,-235.08 926,-257 898.57,-332.18 916.33,-358.16 888,-433 883.89,-443.85 879.14,-454.86 874,-465.76"/>
<polygon fill="#6f6f6f" stroke="#6f6f6f" stroke-width="2.5" points="870.79,-464.35 869.6,-474.88 877.1,-467.39 870.79,-464.35"/>
</a>
</g>
</g>
<!-- Max_Retries&#45;&gt;Locked -->
<g id="edge16" class="edge">
<title>Max_Retries&#45;&gt;Locked</title>
<g id="a_edge16"><a xlink:title="Locked: read Max_Retries">
<path fill="none" stroke="#6f6f6f" stroke-width="2.5" d="M362,-1030.68C360.99,-1009.89 359.83,-985.95 358.69,-962.32"/>
<polygon fill="#6f6f6f" stroke="#6f6f6f" stroke-width="2.5" points="362.18,-962.04 358.2,-952.22 355.19,-962.38 362.18,-962.04"/>
</a>
</g>
</g>
<!-- Disabled&#45;&gt;Disabled -->
<g id="edge20" class="edge">
<title>Disabled&#45;&gt;Disabled</title>
<path fill="none" stroke="#6f6f6f" stroke-width="2.5" d="M568.54,-634.19C579.42,-626.86 586.5,-613.63 586.5,-594.5 586.5,-580.45 582.68,-569.58 576.34,-561.9"/>
<polygon fill="#6f6f6f" stroke="#6f6f6f" stroke-width="2.5" points="578.3,-558.95 568.54,-554.81 573.59,-564.13 578.3,-558.95"/>
</g>
<!-- Authenticated&#45;&gt;Error -->
<g id="edge21" class="edge">
<title>Authenticated&#45;&gt;Error</title>
<g id="a_edge21"><a xlink:title="Authenticated → Error&#10;&#10;[0] Request&#39;Valid = False">
<path fill="none" stroke="#6f6f6f" stroke-width="2.5" d="M642.85,-499.4C624.17,-490.06 604.98,-481.61 586,-475 460.92,-431.47 416.83,-474.3 291,-433 281.35,-429.83 271.59,-426.11 261.92,-422.01"/>
<polygon fill="#6f6f6f" stroke="#6f6f6f" stroke-width="2.5" points="263.25,-418.77 252.68,-417.98 260.45,-425.19 263.25,-418.77"/>
</a>
</g>
</g>
<!-- Authenticated&#45;&gt;Error -->
<g id="edge26" class="edge">
<title>Authenticated&#45;&gt;Error</title>
<path fill="none" stroke="#6f6f6f" stroke-width="2.5" d="M642.76,-490.74C629.92,-484.84 616.91,-479.49 604,-475 478.92,-431.47 434.83,-474.3 309,-433 293.28,-427.84 277.28,-421.2 261.7,-413.9"/>
<polygon fill="#6f6f6f" stroke="#6f6f6f" stroke-width="2.5" points="263.1,-410.69 252.57,-409.53 260.08,-417.01 263.1,-410.69"/>
</g>
<!-- Authenticated&#45;&gt;Locked -->
<g id="edge23" class="edge">
<title>Authenticated&#45;&gt;Locked</title>
<g id="a_edge23"><a xlink:title="Authenticated → Locked&#10;&#10;[2] (Request.Kind = Auth&#10; and PIN /= Request.PIN)&#10;or Request.Kind = Deauth">
<path fill="none" stroke="#6f6f6f" stroke-width="2.5" d="M642.66,-711.28C641.11,-712.2 639.55,-713.1 638,-714 595.38,-738.65 547.26,-762.43 502.85,-782.71"/>
<polygon fill="#6f6f6f" stroke="#6f6f6f" stroke-width="2.5" points="501.38,-779.54 493.72,-786.86 504.28,-785.91 501.38,-779.54"/>
</a>
</g>
</g>
<!-- Authenticated&#45;&gt;Authenticated -->
<g id="edge22" class="edge">
<title>Authenticated&#45;&gt;Authenticated</title>
<g id="a_edge22"><a xlink:title="Authenticated → Authenticated&#10;&#10;[1] Request.Kind = Auth&#10;and PIN = Request.PIN">
<path fill="none" stroke="#6f6f6f" stroke-width="2.5" d="M953.16,-628.64C964.24,-620.89 971,-609.52 971,-594.5 971,-583.47 967.35,-574.41 961.03,-567.3"/>
<polygon fill="#6f6f6f" stroke="#6f6f6f" stroke-width="2.5" points="962.98,-564.35 953.16,-560.36 958.35,-569.6 962.98,-564.35"/>
</a>
</g>
</g>
<!-- Authenticated&#45;&gt;Retries -->
<g id="edge29" class="edge">
<title>Authenticated&#45;&gt;Retries</title>
<g id="a_edge29"><a xlink:title="Authenticated: write Retries">
<path fill="none" stroke="#6f6f6f" stroke-width="2.5" d="M642.79,-503.28C595.59,-475.4 550.31,-448.07 528,-433 527.23,-432.48 526.46,-431.96 525.69,-431.44"/>
<polygon fill="#6f6f6f" stroke="#6f6f6f" stroke-width="2.5" points="527.61,-428.5 517.39,-425.71 523.63,-434.27 527.61,-428.5"/>
</a>
</g>
</g>
<!-- Authenticated&#45;&gt;User_Channel -->
<g id="edge30" class="edge">
<title>Authenticated&#45;&gt;User_Channel</title>
<g id="a_edge30"><a xlink:title="Authenticated: write User_Channel">
<path fill="none" stroke="#6f6f6f" stroke-width="2.5" d="M711.69,-474.82C697.06,-454.71 682.3,-434.41 668.96,-416.06"/>
<polygon fill="#6f6f6f" stroke="#6f6f6f" stroke-width="2.5" points="671.64,-413.81 662.93,-407.78 665.98,-417.93 671.64,-413.81"/>
</a>
</g>
</g>
<!-- Forwarding -->
<g id="node14" class="node">
<title>Forwarding</title>
<path fill="#009641" stroke="#6f6f6f" d="M867,-407.5C867,-407.5 729,-407.5 729,-407.5 723,-407.5 717,-401.5 717,-395.5 717,-395.5 717,-294.5 717,-294.5 717,-288.5 723,-282.5 729,-282.5 729,-282.5 867,-282.5 867,-282.5 873,-282.5 879,-288.5 879,-294.5 879,-294.5 879,-395.5 879,-395.5 879,-401.5 873,-407.5 867,-407.5"/>
<text text-anchor="middle" x="798" y="-341.3" font-family="Arimo" font-size="14.00" fill="#ffffff">Forwarding</text>
</g>
<!-- Authenticated&#45;&gt;Forwarding -->
<g id="edge24" class="edge">
<title>Authenticated&#45;&gt;Forwarding</title>
<g id="a_edge24"><a xlink:title="Authenticated → Forwarding&#10;&#10;[3] Request.Kind = Forward">
<path fill="none" stroke="#6f6f6f" stroke-width="2.5" d="M791.26,-474.82C791.22,-455.43 791.4,-435.87 791.8,-418.05"/>
<polygon fill="#6f6f6f" stroke="#6f6f6f" stroke-width="2.5" points="795.31,-417.87 792.07,-407.78 788.31,-417.69 795.31,-417.87"/>
</a>
</g>
</g>
<!-- Update -->
<g id="node15" class="node">
<title>Update</title>
<path fill="#009641" stroke="#6f6f6f" d="M1085,-407.5C1085,-407.5 947,-407.5 947,-407.5 941,-407.5 935,-401.5 935,-395.5 935,-395.5 935,-294.5 935,-294.5 935,-288.5 941,-282.5 947,-282.5 947,-282.5 1085,-282.5 1085,-282.5 1091,-282.5 1097,-288.5 1097,-294.5 1097,-294.5 1097,-395.5 1097,-395.5 1097,-401.5 1091,-407.5 1085,-407.5"/>
<text text-anchor="middle" x="1016" y="-341.3" font-family="Arimo" font-size="14.00" fill="#ffffff">Update</text>
</g>
<!-- Authenticated&#45;&gt;Update -->
<g id="edge25" class="edge">
<title>Authenticated&#45;&gt;Update</title>
<g id="a_edge25"><a xlink:title="Authenticated → Update&#10;&#10;[4] Request.Kind = Change">
<path fill="none" stroke="#6f6f6f" stroke-width="2.5" d="M895.79,-474.82C913.63,-454.52 931.87,-434.04 948.58,-415.57"/>
<polygon fill="#6f6f6f" stroke="#6f6f6f" stroke-width="2.5" points="951.52,-417.54 955.65,-407.78 946.34,-412.83 951.52,-417.54"/>
</a>
</g>
</g>
<!-- Request -->
<g id="node11" class="node">
<title>Request</title>
<path fill="#7e8ab8" stroke="#6f6f6f" d="M934,-1207.5C934,-1207.5 662,-1207.5 662,-1207.5 656,-1207.5 650,-1201.5 650,-1195.5 650,-1195.5 650,-991.5 650,-991.5 650,-985.5 656,-979.5 662,-979.5 662,-979.5 934,-979.5 934,-979.5 940,-979.5 946,-985.5 946,-991.5 946,-991.5 946,-1195.5 946,-1195.5 946,-1201.5 940,-1207.5 934,-1207.5"/>
<text text-anchor="middle" x="798" y="-1089.8" font-family="Arimo" font-size="14.00" fill="#ffffff">Request</text>
</g>
<!-- Request&#45;&gt;Locked -->
<g id="edge14" class="edge">
<title>Request&#45;&gt;Locked</title>
<g id="a_edge14"><a xlink:title="Locked: read Request">
<path fill="none" stroke="#6f6f6f" stroke-width="2.5" d="M649.82,-1010.09C602.46,-983.74 550.01,-954.57 502.55,-928.18"/>
<polygon fill="#6f6f6f" stroke="#6f6f6f" stroke-width="2.5" points="504.19,-925.08 493.75,-923.28 500.79,-931.2 504.19,-925.08"/>
</a>
</g>
</g>
<!-- Request&#45;&gt;Authenticated -->
<g id="edge27" class="edge">
<title>Request&#45;&gt;Authenticated</title>
<g id="a_edge27"><a xlink:title="Authenticated: read Request">
<path fill="none" stroke="#6f6f6f" stroke-width="2.5" d="M798,-979.41C798,-903.46 798,-803.21 798,-724.2"/>
<polygon fill="#6f6f6f" stroke="#6f6f6f" stroke-width="2.5" points="801.5,-724.18 798,-714.18 794.5,-724.18 801.5,-724.18"/>
</a>
</g>
</g>
<!-- Request&#45;&gt;Update -->
<g id="edge32" class="edge">
<title>Request&#45;&gt;Update</title>
<g id="a_edge32"><a xlink:title="Update: read Request">
<path fill="none" stroke="#6f6f6f" stroke-width="2.5" d="M865.35,-979.42C905.58,-906.27 953.82,-807.56 980,-714 1008.01,-613.92 1014.99,-493.26 1016.34,-418.06"/>
<polygon fill="#6f6f6f" stroke="#6f6f6f" stroke-width="2.5" points="1019.84,-417.81 1016.49,-407.76 1012.84,-417.71 1019.84,-417.81"/>
</a>
</g>
</g>
<!-- Retries&#45;&gt;Locked -->
<g id="edge15" class="edge">
<title>Retries&#45;&gt;Locked</title>
<g id="a_edge15"><a xlink:title="Locked: read Retries">
<path fill="none" stroke="#6f6f6f" stroke-width="2.5" d="M393.28,-425.67C388.5,-441.8 384,-458.79 381,-475 365.64,-557.91 361.06,-652.99 359,-725.74"/>
<polygon fill="#6f6f6f" stroke="#6f6f6f" stroke-width="2.5" points="355.5,-725.76 358.73,-735.85 362.5,-725.95 355.5,-725.76"/>
</a>
</g>
</g>
<!-- Forwarding&#45;&gt;Authenticated -->
<g id="edge34" class="edge">
<title>Forwarding&#45;&gt;Authenticated</title>
<path fill="none" stroke="#6f6f6f" stroke-width="2.5" d="M803.93,-407.78C804.44,-425.24 804.71,-444.91 804.75,-464.76"/>
<polygon fill="#6f6f6f" stroke="#6f6f6f" stroke-width="2.5" points="801.25,-464.82 804.74,-474.82 808.25,-464.82 801.25,-464.82"/>
</g>
<!-- Upstream_Channel -->
<g id="node16" class="node">
<title>Upstream_Channel</title>
<path fill="#7e8ab8" stroke="#6f6f6f" d="M853,-146.5C853,-146.5 743,-146.5 743,-146.5 737,-146.5 731,-140.5 731,-134.5 731,-134.5 731,-56.5 731,-56.5 731,-50.5 737,-44.5 743,-44.5 743,-44.5 853,-44.5 853,-44.5 859,-44.5 865,-50.5 865,-56.5 865,-56.5 865,-134.5 865,-134.5 865,-140.5 859,-146.5 853,-146.5"/>
<text text-anchor="middle" x="798" y="-91.8" font-family="Arimo" font-size="14.00" fill="#ffffff">Upstream_Channel</text>
</g>
<!-- Forwarding&#45;&gt;Upstream_Channel -->
<g id="edge35" class="edge">
<title>Forwarding&#45;&gt;Upstream_Channel</title>
<g id="a_edge35"><a xlink:title="Forwarding: write Upstream_Channel">
<path fill="none" stroke="#6f6f6f" stroke-width="2.5" d="M798,-282.18C798,-243.97 798,-195.14 798,-157.14"/>
<polygon fill="#6f6f6f" stroke="#6f6f6f" stroke-width="2.5" points="801.5,-156.73 798,-146.73 794.5,-156.73 801.5,-156.73"/>
</a>
</g>
</g>
<!-- Update&#45;&gt;PIN -->
<g id="edge33" class="edge">
<title>Update&#45;&gt;PIN</title>
<g id="a_edge33"><a xlink:title="Update: write PIN">
<path fill="none" stroke="#6f6f6f" stroke-width="2.5" d="M1014.75,-282.18C1014.26,-257.7 1013.67,-228.86 1013.12,-201.3"/>
<polygon fill="#6f6f6f" stroke="#6f6f6f" stroke-width="2.5" points="1016.61,-201.14 1012.91,-191.22 1009.62,-201.29 1016.61,-201.14"/>
</a>
</g>
</g>
<!-- Update&#45;&gt;Authenticated -->
<g id="edge31" class="edge">
<title>Update&#45;&gt;Authenticated</title>
<path fill="none" stroke="#6f6f6f" stroke-width="2.5" d="M967.52,-407.78C952.03,-425.96 934.18,-446.53 915.99,-467.21"/>
<polygon fill="#6f6f6f" stroke="#6f6f6f" stroke-width="2.5" points="913.26,-465.01 909.28,-474.82 918.51,-469.64 913.26,-465.01"/>
</g>
</g>
</svg>
